ply
format ascii 1.0
comment Author: CloudCompare (TELECOM PARISTECH/EDF R&D)
obj_info Generated by CloudCompare!
element vertex 69
property float x
property float y
property float z
end_header
-28.127 617.753 361.186 
-22.8217 630.712 366.937 
-19.0884 618.799 375.103 
-33.4681 634.823 414.244 
-31.4492 647.83 422.247 
-28.9877 635.692 400.429 
-28.7691 660.835 430.293 
-27.0114 674.729 434.211 
-26.8278 651.523 407.446 
-25.6911 664.025 414.992 
-21.8676 628.513 389.786 
-17.1501 665.88 449.09 
-15.2824 675.143 414.688 
-15.2345 660.108 405.701 
-15.2234 642.951 395.959 
-12.1244 646.012 442.664 
-8.18842 674.891 457.032 
-7.55443 630.621 386.709 
-4.24706 659.052 448.745 
-4.22908 651.667 400.405 
-2.62088 616.679 386.684 
-1.38565 667.487 410.768 
-1.25919 637.236 436.662 
0.839758 637.81 397.197 
4.65534 623.795 401.287 
5.76596 649.831 438.203 
5.83332 672.766 452.281 
6.06584 660.379 394.196 
7.36366 646.777 407.903 
8.77147 674.789 422.249 
11.5007 639.805 422.323 
12.2006 669.725 436.13 
12.822 656.781 419.223 
-23.953 689.696 440.267 
-21.1516 747.824 443.273 
-20.0653 685.499 425.587 
-18.7151 699.938 451.311 
-18.2403 734.786 458.209 
-14.2588 720.871 454.119 
-13.4347 701.972 436.104 
-13.271 690.758 461.361 
-13.2681 752.364 458.511 
-12.8322 708.7 462.156 
-11.2942 724.522 474.603 
-8.40653 737.926 443.726 
-8.03032 735.717 483.356 
-7.40855 757.289 472.837 
-7.2259 749.787 487.224 
-4.28052 717.122 442.807 
-4.25198 684.471 420.736 
-3.11147 709.939 472.915 
-1.2841 695.637 468.595 
-1.24644 697.476 429.641 
-0.133693 769.639 477.63 
0.807041 747.8 451.167 
2.58838 760.033 494.723 
2.6803 723.704 479.615 
2.76857 730.864 451.638 
2.81633 744.653 469.375 
5.77221 706.783 440.263 
8.44355 685.958 457.969 
8.85879 716.814 451.198 
9.3909 687.507 429.561 
9.69575 755.783 475.583 
11.4057 731.613 465.424 
12.0451 700.752 457.248 
12.9174 692.839 443.204 
13.1428 715.495 467.366 
13.7885 773.48 475.663 
